<svg width="500" height="400" viewBox="0 0 500 400" fill="none" xmlns="http://www.w3.org/2000/svg">
  <rect width="500" height="400" fill="white" fill-opacity="0.01"/>
  <rect x="100" y="50" width="300" height="300" rx="20" fill="#F3F4F6"/>
  <rect x="130" y="80" width="240" height="240" rx="10" fill="white"/>
  <rect x="150" y="110" width="200" height="30" rx="5" fill="#EDE9FE"/>
  <rect x="150" y="150" width="200" height="30" rx="5" fill="#EDE9FE"/>
  <rect x="150" y="190" width="200" height="30" rx="5" fill="#EDE9FE"/>
  <rect x="150" y="230" width="200" height="30" rx="5" fill="#EDE9FE"/>
  <rect x="150" y="270" width="200" height="30" rx="5" fill="#EDE9FE"/>
  <circle cx="130" cy="125" r="10" fill="#8B5CF6"/>
  <circle cx="130" cy="165" r="10" fill="#8B5CF6"/>
  <circle cx="130" cy="205" r="10" fill="#8B5CF6"/>
  <circle cx="130" cy="245" r="10" fill="#8B5CF6"/>
  <circle cx="130" cy="285" r="10" fill="#8B5CF6"/>
  <path d="M80 150 L120 150" stroke="#8B5CF6" stroke-width="3"/>
  <path d="M80 200 L120 200" stroke="#8B5CF6" stroke-width="3"/>
  <path d="M80 250 L120 250" stroke="#8B5CF6" stroke-width="3"/>
  <circle cx="400" cy="100" r="30" fill="#DDD6FE"/>
  <circle cx="70" cy="300" r="20" fill="#DDD6FE"/>
  <circle cx="430" cy="280" r="15" fill="#DDD6FE"/>
</svg>
